<?xml version="1.0" encoding="UTF-8" standalone="no"?>
<svg
   xmlns:dc="http://purl.org/dc/elements/1.1/"
   xmlns:cc="http://creativecommons.org/ns#"
   xmlns:rdf="http://www.w3.org/1999/02/22-rdf-syntax-ns#"
   xmlns:svg="http://www.w3.org/2000/svg"
   xmlns="http://www.w3.org/2000/svg"
   xmlns:sodipodi="http://sodipodi.sourceforge.net/DTD/sodipodi-0.dtd"
   xmlns:inkscape="http://www.inkscape.org/namespaces/inkscape"
   width="492px"
   height="160px"
   viewBox="0 0 492 160"
   version="1.1"
   id="SVGRoot"
   sodipodi:docname="Yeah1.svg"
   inkscape:version="1.0.1 (3bc2e813f5, 2020-09-07)">
  <defs
     id="defs907" />
  <sodipodi:namedview
     id="base"
     pagecolor="#ffffff"
     bordercolor="#666666"
     borderopacity="1.0"
     inkscape:pageopacity="0.0"
     inkscape:pageshadow="2"
     inkscape:zoom="0.92751118"
     inkscape:cx="500.09815"
     inkscape:cy="167.40559"
     inkscape:document-units="px"
     inkscape:current-layer="layer1"
     inkscape:document-rotation="0"
     showgrid="false"
     inkscape:window-width="1920"
     inkscape:window-height="1001"
     inkscape:window-x="-9"
     inkscape:window-y="-9"
     inkscape:window-maximized="1" />
  <metadata
     id="metadata910">
    <rdf:RDF>
      <cc:Work
         rdf:about="">
        <dc:format>image/svg+xml</dc:format>
        <dc:type
           rdf:resource="http://purl.org/dc/dcmitype/StillImage" />
        <dc:title></dc:title>
      </cc:Work>
    </rdf:RDF>
  </metadata>
  <g
     inkscape:label="Lớp 1"
     inkscape:groupmode="layer"
     id="layer1">
    <path
       id="path851"
       style="fill:#ffffff;fill-opacity:1;stroke:none;stroke-width:0.172649;stroke-linecap:butt;stroke-linejoin:miter;stroke-miterlimit:4;stroke-dasharray:none;stroke-opacity:1"
       d="M 81.193113,0.16010021 C 80.548585,0.1441246 77.838142,0.3619685 75.717867,4.7953284 73.294666,9.8619724 55.892272,45.769721 55.892272,45.769721 c 0,0 -2.643255,5.286932 -2.312806,0 0.330416,-5.286947 1.541392,-41.9654139 1.541392,-41.9654139 0,0 0.771548,-3.63459041 -2.863208,-3.63459041 H 15.469675 c 0,0 -2.753749,0.21939611 -2.643602,3.41362921 0.110233,3.1941942 2.643602,89.9879721 2.643602,89.9879721 0,0 0.549655,5.287787 -0.992377,10.464592 -1.542007,5.17677 -13.8782151,49.8948 -13.8782151,49.8948 0,0 -1.9817752,5.83759 2.4239969,5.83759 H 43.114889 c 0,0 3.52487,4e-5 5.287177,-5.83759 1.762301,-5.83766 12.777384,-48.24359 12.777384,-48.24359 0,0 2.862732,-8.700776 6.607639,-14.979013 3.744898,-6.27823 50.667561,-87.3443866 50.667561,-87.3443866 0,0 2.42203,-3.19400371 -2.31418,-3.19400371 H 81.335842 c 0,0 -0.05069,-0.007984 -0.142741,-0.0106407 z m 53.121727,0.0106397 c 0,0 -3.52489,0.10996413 -4.84658,4.95641219 C 128.14653,9.973512 89.37645,155.14375 89.37645,155.14375 c 0,0 -1.541875,4.62558 2.643596,4.62558 h 74.347384 c 0,0 3.08392,-0.21965 4.0752,-4.18498 0.99135,-3.96523 10.10634,-37.28765 10.10634,-37.28765 0,0 1.35964,-3.35593 -2.39242,-3.35596 h -35.52659 c 0,0 -1.6594,-0.0508 -0.87846,-2.49125 0.78099,-2.44053 2.73284,-10.64987 2.73284,-10.64987 0,0 0.15376,-1.983391 2.49672,-1.983391 h 15.981 c 0,0 2.62498,0.04429 3.19536,-2.35122 0.57041,-2.395598 9.75221,-36.38997 9.75221,-36.38997 0,0 1.25603,-3.707339 -1.93808,-3.707339 h -14.94468 c 0,0 -2.33797,-0.05766 -1.48241,-2.738299 0.85556,-2.68078 2.7946,-9.695952 2.7946,-9.695952 0,0 0.34196,-1.76788 2.68064,-1.76788 h 35.24935 c 0,0 1.82461,-0.171047 2.50905,-2.56673 0.68449,-2.395575 9.81124,-36.2183769 9.81124,-36.2183769 0,0 1.82473,-4.20969359 -2.22496,-4.20972241 z m 121.5039,0 c 0,0 -2.96324,-0.0878869 -4.74092,3.86247029 -1.77765,3.9503804 -68.80213,150.9705198 -68.80213,150.9705198 0,0 -1.97557,4.7656 1.44808,4.7656 h 35.48819 c 0,0 2.56773,0.10752 4.14791,-3.64557 1.58015,-3.75289 11.71912,-29.43096 11.71912,-29.43096 0,0 1.25049,-3.02791 3.42321,-3.02791 h 9.94161 c 0,0 1.9762,-0.001 1.4495,4.27834 -0.52674,4.27957 -3.75265,27.65345 -3.75265,27.65345 0,0 -0.85699,4.17265 2.50082,4.17265 h 34.17185 c 0,0 4.47621,-0.22206 4.73954,-5.88427 L 298.87805,4.4285755 c 0,0 0.98741,-4.25777536 -2.37044,-4.25777536 z m 87.90031,0 c -3.0072,0 -3.55778,2.81518779 -3.55778,2.81518779 L 299.78125,153.35392 c 0,0 -2.64287,6.41547 2.36907,6.41547 h 33.53497 c 0,0 2.73345,5.3e-4 3.55362,-3.22559 1.0238,-4.02788 14.21587,-53.58291 14.21587,-53.58291 0,0 0.54605,-2.64223 2.91534,-2.64223 h 3.64557 c 0,0 1.27616,-0.0918 0.63828,2.64223 -0.63789,2.73376 -14.21585,52.94468 -14.21585,52.94468 0,0 -1.09348,3.86382 2.09593,3.86382 h 34.62757 c 2.82485,0 3.463,-3.50008 3.463,-3.50008 0,0 39.86958,-148.8128481 40.78083,-152.548989 0.77297,-3.55024319 -1.87085,-3.54952638 -1.87085,-3.54952638 h -34.99123 c -2.46043,0 -3.28051,2.73420538 -3.28051,2.73420538 0,0 -13.12256,50.483211 -13.94267,53.125863 -0.82019,2.64264 -2.55167,2.824771 -2.55167,2.824771 h -4.10127 c -1.45802,0 -0.91142,-2.186508 -0.91142,-2.186508 L 380.15425,3.5432442 c 1.09351,-3.37213034 -1.45767,-3.37244978 -1.45767,-3.37244978 z M 444.48729,2.3957165 c 0,0 -2.91887,-0.1105031 -4.00521,4.0312834 -1.08635,4.1416501 -10.72816,39.6511841 -10.72816,39.6511841 0,0 -1.42634,3.259895 1.22165,3.259895 h 4.07379 c 0,0 1.69796,-2.38e-4 0.81533,2.647729 L 407.48378,157.15743 c 0,0 -0.54231,2.612 2.24143,2.612 h 38.49687 c 0,0 1.96877,5.3e-4 2.64772,-3.15556 L 491.53948,5.3413262 c 0,0 1.35813,-2.9455711 -1.62929,-2.9455711 z M 256.30325,75.893406 c 0.18572,0.05235 0.29523,0.404364 0.23878,1.287495 -0.19768,3.094449 -2.69847,22.635267 -2.69847,22.635267 0,0 -0.0664,2.581832 -2.83164,2.581832 h -4.54326 c 0,0 -1.84265,-5.2e-4 -0.72336,-2.699888 1.11928,-2.699394 9.15103,-22.187793 9.15103,-22.187793 0,0 0.34026,-0.630973 0.71237,-1.1063 0.24727,-0.316056 0.50872,-0.563045 0.69451,-0.510613 z" />
  </g>
</svg>
